<?xml version="1.0" encoding="utf-8"?>
<!-- Generator: Adobe Illustrator 22.0.1, SVG Export Plug-In . SVG Version: 6.00 Build 0)  -->
<svg version="1.1" id="Layer_1" xmlns="http://www.w3.org/2000/svg" xmlns:xlink="http://www.w3.org/1999/xlink" x="0px" y="0px"
	 viewBox="0 0 25 25.1" style="enable-background:new 0 0 25 25.1;" xml:space="preserve">
<g>
	<path d="M6.2,4.5c2.4,0,4.2,1.9,4.2,4.2S8.6,13,6.2,13S2,11.1,2,8.7S3.9,4.5,6.2,4.5z M18.7,14.5c-3.4,0-6.2,2.8-6.2,6.2
		c0-3.4-2.8-6.2-6.2-6.2S0,17.3,0,20.7V25h12.5H25v-4.3C25,17.3,22.2,14.5,18.7,14.5z M18.7,13c2.4,0,4.2-1.9,4.2-4.2
		s-1.9-4.2-4.2-4.2s-4.2,1.9-4.2,4.2C14.5,11.1,16.4,13,18.7,13z M13.7,1.2c0-0.6-0.5-1.2-1.2-1.2c-0.7,0-1.2,0.5-1.2,1.2
		c0,0.6,0.5,1.2,1.2,1.2C13.2,2.4,13.7,1.8,13.7,1.2z M17.2,1.2C17.2,0.5,16.7,0,16,0c-0.7,0-1.2,0.5-1.2,1.2c0,0.6,0.5,1.2,1.2,1.2
		C16.7,2.4,17.2,1.8,17.2,1.2z M10.1,1.2C10.1,0.5,9.6,0,8.9,0C8.3,0,7.7,0.5,7.7,1.2c0,0.6,0.5,1.2,1.2,1.2
		C9.6,2.4,10.1,1.8,10.1,1.2z"/>
</g>
</svg>
