<?xml version="1.0" encoding="utf-8"?>
<!-- Generator: Adobe Illustrator 22.0.1, SVG Export Plug-In . SVG Version: 6.00 Build 0)  -->
<svg version="1.1" id="Layer_1" xmlns="http://www.w3.org/2000/svg" xmlns:xlink="http://www.w3.org/1999/xlink" x="0px" y="0px"
	 viewBox="0 0 46.1 28.4" style="enable-background:new 0 0 46.1 28.4;" xml:space="preserve">
<path d="M38.3,14.4l4.9-12.5c0.1-0.4,0.6-0.3,0.6,0.1v10h-0.1V15v10.2c0,0.8-0.6,1.5-1.4,1.5c-0.8,0-1.4-0.6-1.4-1.5V14.9h-2.4
	C38.4,14.9,38.2,14.6,38.3,14.4z M23,2.6c6.4,0,11.5,5.2,11.5,11.5c0,6.4-5.2,11.5-11.5,11.5c-6.4,0-11.5-5.2-11.5-11.5
	C11.5,7.8,16.6,2.6,23,2.6z M2.3,2.3c0-0.3,0.3-0.6,0.6-0.6S3.4,2,3.4,2.3v4.4c0,0.3,0.3,0.6,0.6,0.6S4.5,7,4.5,6.7V2.3
	C4.5,2,4.8,1.7,5,1.7c0.3,0,0.6,0.3,0.6,0.6v4.4c0,0.3,0.3,0.6,0.6,0.6c0.3,0,0.6-0.3,0.6-0.6V2.3C6.7,2,7,1.7,7.3,1.7
	S7.8,2,7.8,2.3v5.2C7.7,8.4,7.2,9.2,6.4,9.6v15.6c0,0.7-0.6,1.4-1.4,1.4c-0.7,0-1.4-0.6-1.4-1.4V9.6C2.9,9.2,2.4,8.4,2.3,7.4V2.3z"
	/>
</svg>
