<?xml version="1.0" encoding="utf-8"?>
<!-- Generator: Adobe Illustrator 22.0.1, SVG Export Plug-In . SVG Version: 6.00 Build 0)  -->
<svg version="1.1" id="Layer_1" xmlns="http://www.w3.org/2000/svg" xmlns:xlink="http://www.w3.org/1999/xlink" x="0px" y="0px"
	 viewBox="0 0 27.2 30" style="enable-background:new 0 0 27.2 30;" xml:space="preserve">
<g>
	<path d="M-0.2,22.2l7.9,7.2l2.5-2.9c0,0,0.8,0.2,1.8,0c1.7-0.9,8-7.6,8-9.1c0-0.7-0.8-1.5-1.6-2.6v1.5l-1.2,1.3l-0.4-0.4l1.1-1.4
		l0.2-1.7c-0.6-0.8-1.3-1.7-2-2.5L15.8,14l-1.2,1.3l-0.4-0.4l1.1-1.4l0.3-2.5c-0.6-0.7-1.3-1.5-1.8-2.1l-0.2,2.8l-1.2,1.3l-0.4-0.4
		l1.1-1.4l0.1-2.8c-0.2-0.3-0.6-1-1.7-1c-1.1,0-1.3,0.6-1.7,1v2.4L7,13.7l-0.6-0.4L9,10.5V8.6C7.6,8,6.5,8.9,6.5,8.9
		s-4.2,4.8-4.7,5.9c-0.4,1,0.4,4.8,0.4,4.8L-0.2,22.2z"/>
	<path d="M4.1,8.6c0.1,0.1-0.3-7.8-0.3-7.8l4.5,3.9L10-0.4L12.9,4l4.3-4.6l-0.6,6.3l7.3-3.7l-3.3,6.5l6.8-0.1l-4.8,4.1l4.8,2.2
		l-3.8,2.4l3.2,4.6l-7.5,0.7l5.7-1.5l-3.7-4.3l4-1.6c0,0-5.2-2.3-5.3-2.3c-0.1,0,4.2-3,4.2-3s-5.8,0.7-5.9,0.5
		c-0.1-0.2,2.9-5.5,2.9-5.5l-5.7,3.2l0.3-5.6l-2.7,4.1l-2.9-4.8L9,6.6L4.7,3C4.7,3,4,8.5,4.1,8.6z"/>
</g>
</svg>
